<svg width="9" height="5" viewBox="0 0 9 5" fill="none" xmlns="http://www.w3.org/2000/svg">
<path d="M4.49523 3.33969L7.76418 0.209924C7.91035 0.0699745 8.07978 0 8.27246 0C8.46514 0 8.63457 0.0699745 8.78074 0.209924C8.92691 0.349873 9 0.512087 9 0.696565C9 0.881043 8.92467 1.04541 8.774 1.18966L4.99354 4.80916C4.92179 4.87277 4.84405 4.92048 4.76033 4.95229C4.67661 4.9841 4.58692 5 4.49124 5C4.39556 5 4.30587 4.9841 4.22215 4.95229C4.13843 4.92048 4.06335 4.87277 3.99691 4.80916L0.216452 1.18966C0.0657873 1.04541 -0.00622272 0.884224 0.000421524 0.706107C0.00706577 0.52799 0.0834732 0.368957 0.229647 0.229008C0.375819 0.0890585 0.545246 0.019084 0.737928 0.019084C0.93061 0.019084 1.10004 0.0890585 1.24621 0.229008L4.49523 3.33969Z" fill="white"/>
</svg>
