<svg width="6" height="10" viewBox="0 0 6 10" fill="none" xmlns="http://www.w3.org/2000/svg">
<path d="M0.391224 9.71975C0.2593 9.58778 0.185189 9.40882 0.185189 9.22223C0.185189 9.03563 0.2593 8.85667 0.391224 8.72471L4.11593 5.00001L0.391224 1.2753C0.324013 1.21039 0.270403 1.13274 0.233523 1.04688C0.196643 0.961028 0.17723 0.868688 0.176418 0.77525C0.175606 0.681813 0.193411 0.58915 0.228794 0.502667C0.264177 0.416185 0.316429 0.337615 0.382502 0.271543C0.448574 0.20547 0.527144 0.153218 0.613627 0.117835C0.700109 0.0824518 0.792773 0.0646467 0.88621 0.0654583C0.979647 0.0662708 1.07199 0.0856829 1.15784 0.122563C1.2437 0.159444 1.32135 0.213055 1.38626 0.280265L5.60848 4.50249C5.74041 4.63445 5.81452 4.81341 5.81452 5.00001C5.81452 5.1866 5.74041 5.36556 5.60848 5.49752L1.38626 9.71975C1.2543 9.85167 1.07534 9.92578 0.888743 9.92578C0.702146 9.92578 0.523188 9.85167 0.391224 9.71975Z" fill="white"/>
</svg>
