<svg width="14" height="13" viewBox="0 0 14 13" fill="none" xmlns="http://www.w3.org/2000/svg">
<path d="M12.3827 12.828L9.98026 10.4895C8.94435 11.2934 7.6605 11.7291 6.33881 11.7253C5.01713 11.7216 3.73591 11.2785 2.70483 10.4686C1.67375 9.65881 0.953894 8.53018 0.663064 7.26747C0.372235 6.00475 0.527663 4.68275 1.10391 3.51782C1.68016 2.35289 2.64309 1.41403 3.83512 0.854899C5.02715 0.29577 6.37766 0.149487 7.66564 0.439992C8.95361 0.730496 10.1027 1.44058 10.925 2.45403C11.7472 3.46749 12.1939 4.72428 12.1918 6.01872C12.1928 7.31829 11.7383 8.57882 10.9045 9.58972L13.3069 11.9289C13.4214 12.0502 13.4834 12.2103 13.4799 12.3755C13.4763 12.5407 13.4075 12.6981 13.2878 12.8145C13.1682 12.931 13.0071 12.9975 12.8384 13C12.6698 13.0025 12.5059 12.9408 12.3827 12.828ZM1.74112 6.01872C1.74669 6.89594 2.01506 7.75227 2.51294 8.48151C3.01083 9.21074 3.71633 9.7808 4.54195 10.121C5.36757 10.4612 6.27699 10.5565 7.15742 10.3952C8.03786 10.2339 8.85057 9.82296 9.49477 9.21346C9.52433 9.1777 9.55778 9.14521 9.59452 9.11654C10.4219 8.28903 10.8852 7.1769 10.885 6.01872C10.885 4.83116 10.4033 3.69224 9.54589 2.85252C8.68849 2.01279 7.5256 1.54103 6.31305 1.54103C5.1005 1.54103 3.93761 2.01279 3.08021 2.85252C2.22281 3.69224 1.74112 4.83116 1.74112 6.01872Z" fill="#138CD3"/>
</svg>
